<?xml version="1.0" encoding="UTF-8" standalone="no"?>
<svg
   xmlns:dc="http://purl.org/dc/elements/1.1/"
   xmlns:cc="http://creativecommons.org/ns#"
   xmlns:rdf="http://www.w3.org/1999/02/22-rdf-syntax-ns#"
   xmlns:svg="http://www.w3.org/2000/svg"
   xmlns="http://www.w3.org/2000/svg"
   xmlns:sodipodi="http://sodipodi.sourceforge.net/DTD/sodipodi-0.dtd"
   xmlns:inkscape="http://www.inkscape.org/namespaces/inkscape"
   width="111.09064mm"
   height="103.44321mm"
   version="1.1"
   viewBox="0 0 111.11564 103.48172"
   id="svg3731"
   sodipodi:docname="bbp_logo.svg"
   inkscape:version="0.92.4 (unknown)"
   style="enable-background:new">
  <metadata
     id="metadata3737">
    <rdf:RDF>
      <cc:Work
         rdf:about="">
        <dc:format>image/svg+xml</dc:format>
        <dc:type
           rdf:resource="http://purl.org/dc/dcmitype/StillImage" />
        <dc:title></dc:title>
      </cc:Work>
    </rdf:RDF>
  </metadata>
  <defs
     id="defs3735" />
  <sodipodi:namedview
     pagecolor="#ffffff"
     bordercolor="#666666"
     borderopacity="1"
     objecttolerance="10"
     gridtolerance="10"
     guidetolerance="10"
     inkscape:pageopacity="0"
     inkscape:pageshadow="2"
     inkscape:window-width="1920"
     inkscape:window-height="1016"
     id="namedview3733"
     showgrid="true"
     inkscape:zoom="4.3729744"
     inkscape:cx="150.55122"
     inkscape:cy="80.427634"
     inkscape:window-x="0"
     inkscape:window-y="27"
     inkscape:window-maximized="1"
     inkscape:current-layer="svg3731">
    <inkscape:grid
       type="xygrid"
       id="grid3747"
       originx="-0.010179331"
       originy="2.644989" />
  </sodipodi:namedview>
  <g
     id="g3719"
     transform="translate(-18.53018,-24.480792)">
    <path
       inkscape:connector-curvature="0"
       id="path3713"
       d="m 70,92.52 v 250 h 130 v -250 z m 65.89,17.39 c 20.53,0.273 39.71,14.98 44.96,35.01 13.71,40.5 -38.65,78.36 -72.66,52.25 -37.14,-22.62 -19.99,-86.43 23.59,-87.11 1.377,-0.1128 2.75,-0.1588 4.119,-0.1406 z m 0,120.4 c 20.53,0.2766 39.7,14.99 44.96,35 13.72,40.52 -38.7,78.39 -72.71,52.22 -37.1,-22.65 -19.92,-86.4 23.63,-87.08 1.377,-0.1126 2.75,-0.1591 4.119,-0.1406 z"
       transform="scale(0.2646)" />
    <path
       inkscape:connector-curvature="0"
       id="path3715"
       d="m 215,92.52 v 250 h 130 v -250 z m 65.89,17.39 c 20.56,0.2719 39.74,15.01 44.97,35.06 13.65,40.48 -38.69,78.28 -72.68,52.19 -37.15,-22.61 -19.99,-86.43 23.58,-87.11 1.379,-0.1132 2.756,-0.1588 4.127,-0.1406 z m -0.002,120.4 c 20.55,0.2801 39.73,15 44.96,35.05 13.68,40.51 -38.73,78.33 -72.71,52.18 -37.1,-22.65 -19.92,-86.39 23.62,-87.08 1.378,-0.1124 2.755,-0.1593 4.125,-0.1406 z"
       transform="scale(0.2646)" />
    <path
       inkscape:connector-curvature="0"
       id="path3717"
       d="m 360,92.52 v 250 h 130 v -250 z m 65.88,17.39 c 20.53,0.2688 39.71,14.99 44.96,35.01 13.72,40.51 -38.69,78.37 -72.69,52.23 -37.1,-22.64 -19.95,-86.41 23.61,-87.09 1.377,-0.1133 2.752,-0.1586 4.121,-0.1406 z"
       transform="scale(0.2646)" />
  </g>
  <path
     style="stroke-width:0.26460001"
     d="m 33.066867,87.602635 a 15.88,15.88 0 0 1 -15.34,15.869995 15.88,15.88 0 0 1 -16.3800007,-14.789995 15.88,15.88 0 0 1 14.2300007,-16.87 15.88,15.88 0 0 1 17.34,13.64"
     id="path3721"
     inkscape:connector-curvature="0" />
  <path
     style="stroke-width:0.26460001"
     d="m 71.445733,87.60264 a 15.88,15.88 0 0 1 -15.34,15.87 15.88,15.88 0 0 1 -16.38,-14.79 15.88,15.88 0 0 1 14.23,-16.87 15.88,15.88 0 0 1 17.34,13.64"
     id="path3723"
     inkscape:connector-curvature="0" />
  <path
     style="stroke-width:0.26460001"
     d="m 109.82459,87.602634 a 15.88,15.88 0 0 1 -15.339999,15.869996 15.88,15.88 0 0 1 -16.38,-14.789996 15.88,15.88 0 0 1 14.23,-16.87 15.88,15.88 0 0 1 17.339999,13.64"
     id="path3725"
     inkscape:connector-curvature="0" />
</svg>
