<svg width="111.1mm" height="100.8mm" enable-background="new" version="1.1" viewBox="0 0 111.125 100.83752" xmlns="http://www.w3.org/2000/svg">
  <g transform="translate(-18.52 -24.48)">
    <g>
      <path transform="scale(.2646)" d="m70 92.52v250h130v-250zm65.89 17.39c20.53 0.273 39.71 14.98 44.96 35.01 13.71 40.5-38.65 78.36-72.66 52.25-37.14-22.62-19.99-86.43 23.59-87.11 1.377-0.1128 2.75-0.1588 4.119-0.1406zm0 120.4c20.53 0.2766 39.7 14.99 44.96 35 13.72 40.52-38.7 78.39-72.71 52.22-37.1-22.65-19.92-86.4 23.63-87.08 1.377-0.1126 2.75-0.1591 4.119-0.1406z"/>
      <path transform="scale(.2646)" d="m215 92.52v250h130v-250zm65.89 17.39c20.56 0.2719 39.74 15.01 44.97 35.06 13.65 40.48-38.69 78.28-72.68 52.19-37.15-22.61-19.99-86.43 23.58-87.11 1.379-0.1132 2.756-0.1588 4.127-0.1406zm-2e-3 120.4c20.55 0.2801 39.73 15 44.96 35.05 13.68 40.51-38.73 78.33-72.71 52.18-37.1-22.65-19.92-86.39 23.62-87.08 1.378-0.1124 2.755-0.1593 4.125-0.1406z"/>
      <path transform="scale(.2646)" d="m360 92.52v250h130v-250zm65.88 17.39c20.53 0.2688 39.71 14.99 44.96 35.01 13.72 40.51-38.69 78.37-72.69 52.23-37.1-22.64-19.95-86.41 23.61-87.09 1.377-0.1133 2.752-0.1586 4.121-0.1406z"/>
    </g>
    <g stroke-width=".2646">
      <path d="m51.59 109.1a15.88 15.88 0 0 1 -15.34 15.87 15.88 15.88 0 0 1 -16.38 -14.79 15.88 15.88 0 0 1 14.23 -16.87 15.88 15.88 0 0 1 17.34 13.64"/>
      <path d="m90.1 108.9a15.88 15.88 0 0 1 -15.34 15.87 15.88 15.88 0 0 1 -16.38 -14.79 15.88 15.88 0 0 1 14.23 -16.87 15.88 15.88 0 0 1 17.34 13.64"/>
      <path d="m128.5 109.4a15.88 15.88 0 0 1 -15.34 15.87 15.88 15.88 0 0 1 -16.38 -14.79 15.88 15.88 0 0 1 14.23 -16.87 15.88 15.88 0 0 1 17.34 13.64"/>
    </g>
  </g>
</svg>
